HIERARCHY
ROOT Hips
{
  OFFSET 377.763 88.2609 174.383
  CHANNELS 6 Xposition Yposition Zposition Zrotation Xrotation Yrotation
  JOINT RightUpLeg
  {
    OFFSET -9.30536 -1.56319 -0.0308412
    CHANNELS 3 Zrotation Xrotation Yrotation
    JOINT RightLeg
    {
      OFFSET -0.0509473 -41.8867 0.0408735
      CHANNELS 3 Zrotation Xrotation Yrotation
      JOINT RightFoot
      {
        OFFSET -0.135761 -42.7852 -0.897951
        CHANNELS 3 Zrotation Xrotation Yrotation
        End Site
        {
          OFFSET 0 -7.69 17.5
        }
      }
    }
  }
  JOINT LeftUpLeg
  {
    OFFSET 9.25165 -1.62789 -0.00729124
    CHANNELS 3 Zrotation Xrotation Yrotation
    JOINT LeftLeg
    {
      OFFSET 0.024936 -41.8804 0.00207043
      CHANNELS 3 Zrotation Xrotation Yrotation
      JOINT LeftFoot
      {
        OFFSET 0.245063 -40.7505 0.529473
        CHANNELS 3 Zrotation Xrotation Yrotation
        End Site
        {
          OFFSET 0 -7.69 17.5
        }
      }
    }
  }
  JOINT Spine
  {
    OFFSET 0.0381636 14.2969 0.0214663
    CHANNELS 3 Zrotation Xrotation Yrotation
    JOINT Spine1
    {
      OFFSET 0.0273681 9.71499 0.0100001
      CHANNELS 3 Zrotation Xrotation Yrotation
      JOINT Spine2
      {
        OFFSET 0.029022 10.1215 -0.000399631
        CHANNELS 3 Zrotation Xrotation Yrotation
        JOINT Spine3
        {
          OFFSET 0.0290531 9.71322 0.0107928
          CHANNELS 3 Zrotation Xrotation Yrotation
          JOINT Neck
          {
            OFFSET 0.0830829 10.3832 0.0498053
            CHANNELS 3 Zrotation Xrotation Yrotation
            JOINT Head
            {
              OFFSET 0.0700972 9.47827 0.0499309
              CHANNELS 3 Zrotation Xrotation Yrotation
              End Site
              {
                OFFSET 0 15.95 0
              }
            }
          }
          JOINT RightShoulder
          {
            OFFSET -3.16088 6.93633 0.0290789
            CHANNELS 3 Zrotation Xrotation Yrotation
            JOINT RightArm
            {
              OFFSET -12.7509 0.028765 0.0682708
              CHANNELS 3 Zrotation Xrotation Yrotation
              JOINT RightForeArm
              {
                OFFSET -26.5067 -0.0728143 0.13822
                CHANNELS 3 Zrotation Xrotation Yrotation
                JOINT RightHand
                {
                  OFFSET -25.9897 -0.0664148 0.00141744
                  CHANNELS 3 Zrotation Xrotation Yrotation
                  JOINT RightHandThumb1
                  {
                    OFFSET -2.48905 0.190105 3.12053
                    CHANNELS 3 Zrotation Xrotation Yrotation
                    JOINT RightHandThumb2
                    {
                      OFFSET -3.68274 0 0
                      CHANNELS 3 Zrotation Xrotation Yrotation
                      JOINT RightHandThumb3
                      {
                        OFFSET -2.55832 0 0
                        CHANNELS 3 Zrotation Xrotation Yrotation
                        End Site
                        {
                          OFFSET -2.194 0 0
                        }
                      }
                    }
                  }
                  JOINT RightInHandIndex
                  {
                    OFFSET -3.22368 0.508421 1.97842
                    CHANNELS 3 Zrotation Xrotation Yrotation
                    JOINT RightHandIndex1
                    {
                      OFFSET -5.21684 -0.091368 0.999158
                      CHANNELS 3 Zrotation Xrotation Yrotation
                      JOINT RightHandIndex2
                      {
                        OFFSET -3.61937 0 0
                        CHANNELS 3 Zrotation Xrotation Yrotation
                        JOINT RightHandIndex3
                        {
                          OFFSET -2.0521 0 0
                          CHANNELS 3 Zrotation Xrotation Yrotation
                          End Site
                          {
                            OFFSET -1.805 0 0
                          }
                        }
                      }
                    }
                  }
                  JOINT RightInHandMiddle
                  {
                    OFFSET -3.38211 0.517263 0.756737
                    CHANNELS 3 Zrotation Xrotation Yrotation
                    JOINT RightHandMiddle1
                    {
                      OFFSET -5.17411 -0.084 0.313895
                      CHANNELS 3 Zrotation Xrotation Yrotation
                      JOINT RightHandMiddle2
                      {
                        OFFSET -3.94947 0 0
                        CHANNELS 3 Zrotation Xrotation Yrotation
                        JOINT RightHandMiddle3
                        {
                          OFFSET -2.47579 0 0
                          CHANNELS 3 Zrotation Xrotation Yrotation
                          End Site
                          {
                            OFFSET -1.975 0 0
                          }
                        }
                      }
                    }
                  }
                  JOINT RightInHandRing
                  {
                    OFFSET -3.36516 0.537895 -0.128947
                    CHANNELS 3 Zrotation Xrotation Yrotation
                    JOINT RightHandRing1
                    {
                      OFFSET -4.63474 -0.022105 -0.478947
                      CHANNELS 3 Zrotation Xrotation Yrotation
                      JOINT RightHandRing2
                      {
                        OFFSET -3.44238 0 0
                        CHANNELS 3 Zrotation Xrotation Yrotation
                        JOINT RightHandRing3
                        {
                          OFFSET -2.3881 0 0
                          CHANNELS 3 Zrotation Xrotation Yrotation
                          End Site
                          {
                            OFFSET -1.857 0 0
                          }
                        }
                      }
                    }
                  }
                  JOINT RightInHandPinky
                  {
                    OFFSET -3.16105 0.469368 -1.20179
                    CHANNELS 3 Zrotation Xrotation Yrotation
                    JOINT RightHandPinky1
                    {
                      OFFSET -4.14105 -0.022105 -1.09053
                      CHANNELS 3 Zrotation Xrotation Yrotation
                      JOINT RightHandPinky2
                      {
                        OFFSET -2.75653 0 0
                        CHANNELS 3 Zrotation Xrotation Yrotation
                        JOINT RightHandPinky3
                        {
                          OFFSET -1.74189 0 0
                          CHANNELS 3 Zrotation Xrotation Yrotation
                          End Site
                          {
                            OFFSET -1.645 0 0
                          }
                        }
                      }
                    }
                  }
                }
              }
            }
          }
          JOINT LeftShoulder
          {
            OFFSET 3.23403 6.91572 -0.0126821
            CHANNELS 3 Zrotation Xrotation Yrotation
            JOINT LeftArm
            {
              OFFSET 12.8488 -0.0444641 -0.0528339
              CHANNELS 3 Zrotation Xrotation Yrotation
              JOINT LeftForeArm
              {
                OFFSET 26.4942 -0.0237746 -0.09002
                CHANNELS 3 Zrotation Xrotation Yrotation
                JOINT LeftHand
                {
                  OFFSET 25.9989 -0.00653758 -0.026747
                  CHANNELS 3 Zrotation Xrotation Yrotation
                  JOINT LeftHandThumb1
                  {
                    OFFSET 2.48905 0.190105 3.12053
                    CHANNELS 3 Zrotation Xrotation Yrotation
                    JOINT LeftHandThumb2
                    {
                      OFFSET 3.68274 0 0
                      CHANNELS 3 Zrotation Xrotation Yrotation
                      JOINT LeftHandThumb3
                      {
                        OFFSET 2.55832 0 0
                        CHANNELS 3 Zrotation Xrotation Yrotation
                        End Site
                        {
                          OFFSET 2.194 0 0
                        }
                      }
                    }
                  }
                  JOINT LeftInHandIndex
                  {
                    OFFSET 3.22368 0.508421 1.97842
                    CHANNELS 3 Zrotation Xrotation Yrotation
                    JOINT LeftHandIndex1
                    {
                      OFFSET 5.21684 -0.091368 0.999158
                      CHANNELS 3 Zrotation Xrotation Yrotation
                      JOINT LeftHandIndex2
                      {
                        OFFSET 3.61937 0 0
                        CHANNELS 3 Zrotation Xrotation Yrotation
                        JOINT LeftHandIndex3
                        {
                          OFFSET 2.0521 0 0
                          CHANNELS 3 Zrotation Xrotation Yrotation
                          End Site
                          {
                            OFFSET 1.805 0 0
                          }
                        }
                      }
                    }
                  }
                  JOINT LeftInHandMiddle
                  {
                    OFFSET 3.38211 0.517263 0.756737
                    CHANNELS 3 Zrotation Xrotation Yrotation
                    JOINT LeftHandMiddle1
                    {
                      OFFSET 5.17411 -0.084 0.313895
                      CHANNELS 3 Zrotation Xrotation Yrotation
                      JOINT LeftHandMiddle2
                      {
                        OFFSET 3.94947 0 0
                        CHANNELS 3 Zrotation Xrotation Yrotation
                        JOINT LeftHandMiddle3
                        {
                          OFFSET 2.47579 0 0
                          CHANNELS 3 Zrotation Xrotation Yrotation
                          End Site
                          {
                            OFFSET 1.975 0 0
                          }
                        }
                      }
                    }
                  }
                  JOINT LeftInHandRing
                  {
                    OFFSET 3.36516 0.537895 -0.128947
                    CHANNELS 3 Zrotation Xrotation Yrotation
                    JOINT LeftHandRing1
                    {
                      OFFSET 4.63474 -0.022105 -0.478947
                      CHANNELS 3 Zrotation Xrotation Yrotation
                      JOINT LeftHandRing2
                      {
                        OFFSET 3.44238 0 0
                        CHANNELS 3 Zrotation Xrotation Yrotation
                        JOINT LeftHandRing3
                        {
                          OFFSET 2.3881 0 0
                          CHANNELS 3 Zrotation Xrotation Yrotation
                          End Site
                          {
                            OFFSET 1.857 0 0
                          }
                        }
                      }
                    }
                  }
                  JOINT LeftInHandPinky
                  {
                    OFFSET 3.16105 0.469368 -1.20179
                    CHANNELS 3 Zrotation Xrotation Yrotation
                    JOINT LeftHandPinky1
                    {
                      OFFSET 4.14105 -0.022105 -1.09053
                      CHANNELS 3 Zrotation Xrotation Yrotation
                      JOINT LeftHandPinky2
                      {
                        OFFSET 2.75653 0 0
                        CHANNELS 3 Zrotation Xrotation Yrotation
                        JOINT LeftHandPinky3
                        {
                          OFFSET 1.74189 0 0
                          CHANNELS 3 Zrotation Xrotation Yrotation
                          End Site
                          {
                            OFFSET 1.645 0 0
                          }
                        }
                      }
                    }
                  }
                }
              }
            }
          }
        }
      }
    }
  }
}
MOTION
Frames: 3
Frame Time: 0.00833333
4.499977015819190456e+02 5.516747874986003587e-03 -2.666777107170747486e-03 -1.459285140816495713e-02 2.099737759068119256e-02 3.295941078818568140e-03 -4.780597887656638442e-03 5.237781080347624074e-02 1.243793399512768266e-01 -2.769915162340014572e-02 -5.963317569423852438e-02 -2.176585518392874508e-01 -5.474200665412113503e-02 7.182365443278222739e-02 8.032176965397021251e-02 1.006609830305975686e-02 6.593385199688764353e-02 2.352695418049820242e-01 1.542373597570858845e-01 9.135971388096816512e-03 -1.321215907153683033e-01 3.547931651142760545e-02 6.590059546386458321e-03 -9.741277094218879495e-02 -2.267945029292092046e-02 -7.766384910105342959e-03 -2.389660550712384077e-02 -3.430107620641371577e-03 -3.767025148754259145e-03 -5.710938225863710152e-03 -9.402037123509317598e-03 -3.175753509803847484e-03 -8.936876989611871464e-03 1.867992942995863213e-03 4.506794652324530061e-03 2.335460042149209176e-03 -1.817012417406808130e-03 7.067020687245814670e-02 -4.918490161913100650e-02 5.739642614596657255e-02 -6.136851799226297755e-02 6.878198274028601844e-02 4.377672434100444987e-02 2.714765964096591683e-02 -3.370031386581917032e-01 1.255180965573313157e-01 -1.656919580800620892e-02 1.047114059864637514e-01 1.038670064928896297e-01 2.407307335511065516e-01 -1.621137695233699702e-02 5.057346346556556432e-02 -2.696473094817679605e-01 3.216854411395129176e-01 0.000000000000000000e+00 0.000000000000000000e+00 0.000000000000000000e+00 -1.588792407759386230e-15 -1.767171951376892933e-15 0.000000000000000000e+00 -4.660060260920230887e-15 1.815451683884507331e-15 0.000000000000000000e+00 -5.359857943439008488e-17 -1.592856833107221728e-15 3.156991078804740688e-16 0.000000000000000000e+00 0.000000000000000000e+00 0.000000000000000000e+00 0.000000000000000000e+00 1.253228644289124998e-15 -6.421713225730056243e-16 0.000000000000000000e+00 3.337356884109290080e-16 -2.225891653738886394e-15 -5.359857943439008488e-17 -1.592856833107221728e-15 3.156991078804740688e-16 0.000000000000000000e+00 -1.470424911092240285e-15 1.248705940113788524e-15 0.000000000000000000e+00 1.110655345730453088e-15 3.582376173318115658e-16 0.000000000000000000e+00 -2.137200850641332175e-16 -1.569046040927677004e-15 -5.359857943439008488e-17 -1.592856833107221728e-15 3.156991078804740688e-16 0.000000000000000000e+00 0.000000000000000000e+00 0.000000000000000000e+00 0.000000000000000000e+00 1.713444904153220233e-16 1.993699148900785229e-15 0.000000000000000000e+00 7.114763652685145852e-16 -5.907625333538048620e-16 -5.359857943439008488e-17 -1.592856833107221728e-15 3.156991078804740688e-16 0.000000000000000000e+00 0.000000000000000000e+00 0.000000000000000000e+00 0.000000000000000000e+00 -8.404080471993257049e-16 1.763770083380986101e-16 0.000000000000000000e+00 -9.024340915133576692e-16 -9.578008595975113790e-17 -9.429970914611070232e-02 7.627281203642880848e-03 -6.946418297264947417e-02 7.191377378416731470e-02 3.412013758017982956e-02 -1.273510484338685050e-02 -3.605584013654006270e-02 -6.901463478508829130e-02 1.125913939648750806e-01 -3.729574642427221226e-02 2.001916060647240120e-03 3.591778745399134415e-02 0.000000000000000000e+00 0.000000000000000000e+00 0.000000000000000000e+00 4.038094470150249300e-16 1.320760629375806880e-16 0.000000000000000000e+00 -1.598892393986356529e-15 -9.152634328428547066e-16 0.000000000000000000e+00 -1.160966905348251693e-15 -1.817123320122592067e-16 4.849604480685462676e-16 0.000000000000000000e+00 0.000000000000000000e+00 0.000000000000000000e+00 0.000000000000000000e+00 -8.255599507074847086e-18 -1.517439796864825665e-15 0.000000000000000000e+00 3.591926436981203085e-16 1.189672183808205179e-15 -1.160966905348251693e-15 -1.817123320122592067e-16 4.849604480685462676e-16 0.000000000000000000e+00 1.234474871001898543e-15 3.615224408762392164e-17 0.000000000000000000e+00 3.731626770565418366e-16 1.750043319618124198e-15 0.000000000000000000e+00 9.261559284097546175e-16 7.534257384007752962e-16 -1.160966905348251693e-15 -1.817123320122592067e-16 4.849604480685462676e-16 0.000000000000000000e+00 0.000000000000000000e+00 0.000000000000000000e+00 0.000000000000000000e+00 -1.634966345560614147e-15 -6.949487141724624442e-16 0.000000000000000000e+00 1.449094050360118066e-15 1.355939659035692202e-16 -1.160966905348251693e-15 -1.817123320122592067e-16 4.849604480685462676e-16 0.000000000000000000e+00 0.000000000000000000e+00 0.000000000000000000e+00 0.000000000000000000e+00 5.235468699547955771e-16 8.793075963301561298e-19 0.000000000000000000e+00 -3.394482343569770266e-17 -1.197920052485121234e-15
4.500011279315878028e+02 -2.907001365803741667e-03 -1.612796726870307541e-03 -1.636980966089569486e-02 2.872460397156704343e-02 -4.766991323925093282e-02 1.453740557456424318e-02 5.140859437183023517e-02 6.976914858814886600e-02 -3.584472229573339164e-02 -3.627780632159728624e-02 -1.704203568425672055e-01 -8.967544439230860920e-02 7.350733967385492118e-02 1.389808042789337783e-01 1.419025370003701436e-02 8.043255955700875925e-02 2.413357654996834412e-01 1.590056532041319581e-01 -6.135696771511841771e-03 -8.110083562562384052e-02 1.512585597930632755e-02 -2.110284294080975662e-02 -1.118067271076723102e-01 -2.015565052110179431e-02 -6.368170135303839567e-03 6.644595700055004953e-03 -2.758087063662058910e-03 -2.174840553600431488e-03 1.759212302983128402e-03 -8.649929987196583805e-03 -9.238367768386752379e-04 2.775490273510879558e-03 1.995041607233365936e-03 4.116768358190635822e-03 2.410230328277582820e-03 1.811093201226438455e-03 6.439558229663942812e-02 -3.633083201175006660e-02 5.449902435952326540e-02 -5.398264946556843857e-02 4.306627394687248533e-02 1.035463319353925257e-02 1.288594026095268158e-02 -1.827619754929292462e-01 -6.551435950520631546e-02 1.479346283994426373e-02 -1.546106465019355114e-01 5.549913243447916755e-02 1.664672442675219077e-01 7.485863966664155558e-03 -3.608117233242020411e-03 -1.594904993235053969e-01 1.543059353277138335e-01 0.000000000000000000e+00 0.000000000000000000e+00 0.000000000000000000e+00 -1.551694965176090586e-15 -2.052182136854634628e-15 0.000000000000000000e+00 -2.385911314149608251e-15 1.911886324855723516e-15 0.000000000000000000e+00 -6.549118108540253477e-17 -1.146257244194290915e-15 1.093159761789654954e-16 0.000000000000000000e+00 0.000000000000000000e+00 0.000000000000000000e+00 0.000000000000000000e+00 5.164798955790659923e-16 -1.769694459652341016e-16 0.000000000000000000e+00 3.311737795090269010e-16 -2.405877330496961116e-15 -6.549118108540253477e-17 -1.146257244194290915e-15 1.093159761789654954e-16 0.000000000000000000e+00 -9.594156051092611013e-16 9.894921512127070334e-16 0.000000000000000000e+00 7.643338180663539505e-16 1.120750928368613164e-16 0.000000000000000000e+00 -1.798724404439195432e-17 -1.278385934350180557e-15 -6.549118108540253477e-17 -1.146257244194290915e-15 1.093159761789654954e-16 0.000000000000000000e+00 0.000000000000000000e+00 0.000000000000000000e+00 0.000000000000000000e+00 -4.326064979018094402e-16 1.858545242081186118e-15 0.000000000000000000e+00 5.735899353297590735e-16 -6.687203490365938414e-16 -6.549118108540253477e-17 -1.146257244194290915e-15 1.093159761789654954e-16 0.000000000000000000e+00 0.000000000000000000e+00 0.000000000000000000e+00 0.000000000000000000e+00 -6.838804859882496336e-16 6.724144523378389928e-16 0.000000000000000000e+00 -1.048853567579999195e-15 -1.388969737457181630e-16 -6.404887837092942959e-02 1.194648314515975134e-02 -4.675346901382901321e-02 5.542903465688003156e-02 7.855998750163652872e-03 -1.231215954569997093e-02 -8.048197962755397616e-02 -7.844290787636773454e-02 6.174118272179289491e-02 -2.594043612246647867e-02 -8.596945329372373060e-03 5.904516291463765554e-02 0.000000000000000000e+00 0.000000000000000000e+00 0.000000000000000000e+00 -4.601891035416008861e-17 5.730420769395377557e-16 0.000000000000000000e+00 -2.148600611314823397e-15 -3.784400525575331371e-16 0.000000000000000000e+00 -1.139432264894769549e-15 9.301161717811632591e-17 4.267291304331989161e-16 0.000000000000000000e+00 0.000000000000000000e+00 0.000000000000000000e+00 0.000000000000000000e+00 -6.111923562824179899e-16 -1.419219687678413784e-15 0.000000000000000000e+00 1.354322575658231717e-16 9.961818576381751098e-16 -1.139432264894769549e-15 9.301161717811632591e-17 4.267291304331989161e-16 0.000000000000000000e+00 7.004843887928999262e-16 1.479824328254533636e-16 0.000000000000000000e+00 4.964662741690271747e-16 1.746445869809528907e-15 0.000000000000000000e+00 9.868182137478287153e-16 6.248591140863190365e-16 -1.139432264894769549e-15 9.301161717811632591e-17 4.267291304331989161e-16 0.000000000000000000e+00 0.000000000000000000e+00 0.000000000000000000e+00 0.000000000000000000e+00 -1.273545887409112680e-15 -4.489293362174349354e-16 0.000000000000000000e+00 1.179593166956588556e-15 1.933491156702740957e-16 -1.139432264894769549e-15 9.301161717811632591e-17 4.267291304331989161e-16 0.000000000000000000e+00 0.000000000000000000e+00 0.000000000000000000e+00 0.000000000000000000e+00 -1.308469227738457743e-16 1.268731195744401189e-16 0.000000000000000000e+00 1.287862452742280225e-16 -1.064970144663626161e-15
4.500053392175253748e+02 -1.007214853113705053e-02 -1.626010079018046662e-03 -1.532633705586940870e-02 3.146767522385961885e-02 -7.736222807397361012e-02 2.760774449929573326e-02 3.887492917976698159e-02 5.408067303478701279e-03 -4.062275704723711245e-02 -9.690455907286928475e-03 -9.022763625582394531e-02 -1.184141304812450085e-01 6.120959951767926399e-02 1.612958413767097698e-01 1.527870693711907285e-02 7.766644387233929969e-02 2.144789146180417494e-01 1.457093135171164677e-01 -1.955624844978274407e-02 -2.446473594609118590e-02 -7.911289521899358967e-03 -4.649025511601527494e-02 -1.141632736100900852e-01 -1.640333088846529855e-02 -3.352923101646190004e-03 2.816865153608145642e-02 -2.156251456351917714e-03 -9.162679247212213770e-05 6.966641769054440769e-03 -7.242596667799418644e-03 1.758845884140191815e-03 1.087513036671064644e-02 1.868277545039905355e-03 2.946569714262069206e-03 2.176419094374953782e-03 7.100131868540625682e-03 4.551442417842659072e-02 -1.862298339315327650e-02 4.323390420002871243e-02 -4.372398180162270775e-02 1.286112981881197201e-02 -2.369052208524781433e-02 -6.193386209703095543e-04 -2.057595155163268255e-02 -2.412320801096882184e-01 3.916312577738514239e-02 -3.762718718637257376e-01 7.304271427120487617e-03 7.984556554994390321e-02 2.562264417477638431e-02 -5.055098419493112005e-02 -4.425748969053048404e-02 -1.738330265120303919e-02 0.000000000000000000e+00 0.000000000000000000e+00 0.000000000000000000e+00 -1.266780225613687050e-15 -1.961698454242995851e-15 0.000000000000000000e+00 -1.614481943774565328e-16 1.629453457885709053e-15 0.000000000000000000e+00 -3.817778998883238673e-16 -5.273738584431898308e-16 -1.862893769740455957e-17 0.000000000000000000e+00 0.000000000000000000e+00 0.000000000000000000e+00 0.000000000000000000e+00 -1.872443096129427340e-16 2.530773138099041772e-16 0.000000000000000000e+00 2.550471983124213550e-16 -2.200074598708358826e-15 -3.817778998883238673e-16 -5.273738584431898308e-16 -1.862893769740455957e-17 0.000000000000000000e+00 -3.534787432788882800e-16 6.436819406951722193e-16 0.000000000000000000e+00 3.572477490342778582e-16 -5.719256845537534600e-17 0.000000000000000000e+00 1.175523255228856856e-16 -8.118579052264115847e-16 -3.817778998883238673e-16 -5.273738584431898308e-16 -1.862893769740455957e-17 0.000000000000000000e+00 0.000000000000000000e+00 0.000000000000000000e+00 0.000000000000000000e+00 -8.829562924517157282e-16 1.422542380846734111e-15 0.000000000000000000e+00 3.401409034284108197e-16 -6.844095920111880462e-16 -3.817778998883238673e-16 -5.273738584431898308e-16 -1.862893769740455957e-17 0.000000000000000000e+00 0.000000000000000000e+00 0.000000000000000000e+00 0.000000000000000000e+00 -3.641956395488474680e-16 9.234310681589243755e-16 0.000000000000000000e+00 -1.009014897413679987e-15 -7.247706658855637841e-17 -2.496542389306644072e-02 1.140458352345378665e-02 -2.162055571370026172e-02 3.861777651997945482e-02 -1.974209816037728396e-02 -2.007021916187514549e-02 -1.068686537463288955e-01 -8.241738396233667940e-02 1.257391286667673691e-02 -1.101470518685331024e-02 -1.983016831703119168e-02 7.553351739854609337e-02 0.000000000000000000e+00 0.000000000000000000e+00 0.000000000000000000e+00 -5.053992996118856768e-16 8.351590904740616347e-16 0.000000000000000000e+00 -2.204148013581255054e-15 1.712946390110725519e-16 0.000000000000000000e+00 -9.569337861416259533e-16 2.607262099759274071e-16 3.205051434596733934e-16 0.000000000000000000e+00 0.000000000000000000e+00 0.000000000000000000e+00 0.000000000000000000e+00 -9.778148989360143014e-16 -1.137546806889414262e-15 0.000000000000000000e+00 -1.057425802040735928e-16 6.843073988050544503e-16 -9.569337861416259533e-16 2.607262099759274071e-16 3.205051434596733934e-16 0.000000000000000000e+00 8.143243313282976952e-17 2.313975199057462344e-16 0.000000000000000000e+00 6.085287364516622133e-16 1.457182656474730556e-15 0.000000000000000000e+00 8.704325288178727679e-16 4.573189045922143334e-16 -9.569337861416259533e-16 2.607262099759274071e-16 3.205051434596733934e-16 0.000000000000000000e+00 0.000000000000000000e+00 0.000000000000000000e+00 0.000000000000000000e+00 -7.821931080284293520e-16 -1.920227165191576313e-16 0.000000000000000000e+00 8.273253365109774993e-16 2.169451127200473729e-16 -9.569337861416259533e-16 2.607262099759274071e-16 3.205051434596733934e-16 0.000000000000000000e+00 0.000000000000000000e+00 0.000000000000000000e+00 0.000000000000000000e+00 -6.504793149926706896e-16 1.506905688933230205e-16 0.000000000000000000e+00 1.767742154922432552e-16 -8.015910160304846518e-16
